<mxfile host="Electron" modified="2024-05-29T14:11:23.768Z" agent="Mozilla/5.0 (Windows NT 10.0; Win64; x64) AppleWebKit/537.36 (KHTML, like Gecko) draw.io/22.0.0 Chrome/114.0.5735.289 Electron/25.8.3 Safari/537.36" etag="Lr5r-BpNMqiyRLt4pxw4" version="22.0.0" type="device">
  <diagram name="Страница — 1" id="e-eSKLsHMLBMmIEnm5Zx">
    <mxGraphModel dx="2630" dy="956" grid="1" gridSize="10" guides="1" tooltips="1" connect="1" arrows="1" fold="1" page="1" pageScale="1" pageWidth="827" pageHeight="1169" math="0" shadow="0">
      <root>
        <mxCell id="0" />
        <mxCell id="1" parent="0" />
        <mxCell id="IYHCk8oZbZFXhVj95i94-7" value="" style="rounded=0;orthogonalLoop=1;jettySize=auto;html=1;" parent="1" source="IYHCk8oZbZFXhVj95i94-1" target="IYHCk8oZbZFXhVj95i94-6" edge="1">
          <mxGeometry relative="1" as="geometry" />
        </mxCell>
        <mxCell id="IYHCk8oZbZFXhVj95i94-15" style="rounded=0;orthogonalLoop=1;jettySize=auto;html=1;" parent="1" source="IYHCk8oZbZFXhVj95i94-1" target="IYHCk8oZbZFXhVj95i94-10" edge="1">
          <mxGeometry relative="1" as="geometry" />
        </mxCell>
        <mxCell id="IYHCk8oZbZFXhVj95i94-47" style="rounded=0;orthogonalLoop=1;jettySize=auto;html=1;" parent="1" source="IYHCk8oZbZFXhVj95i94-1" target="IYHCk8oZbZFXhVj95i94-45" edge="1">
          <mxGeometry relative="1" as="geometry" />
        </mxCell>
        <mxCell id="IYHCk8oZbZFXhVj95i94-1" value="Администратор" style="shape=umlActor;verticalLabelPosition=bottom;verticalAlign=top;html=1;outlineConnect=0;" parent="1" vertex="1">
          <mxGeometry x="90" y="150" width="30" height="60" as="geometry" />
        </mxCell>
        <mxCell id="IYHCk8oZbZFXhVj95i94-22" style="rounded=0;orthogonalLoop=1;jettySize=auto;html=1;" parent="1" source="IYHCk8oZbZFXhVj95i94-2" target="IYHCk8oZbZFXhVj95i94-16" edge="1">
          <mxGeometry relative="1" as="geometry" />
        </mxCell>
        <mxCell id="IYHCk8oZbZFXhVj95i94-25" style="rounded=0;orthogonalLoop=1;jettySize=auto;html=1;" parent="1" source="IYHCk8oZbZFXhVj95i94-2" target="IYHCk8oZbZFXhVj95i94-23" edge="1">
          <mxGeometry relative="1" as="geometry" />
        </mxCell>
        <mxCell id="IYHCk8oZbZFXhVj95i94-28" style="rounded=0;orthogonalLoop=1;jettySize=auto;html=1;" parent="1" source="IYHCk8oZbZFXhVj95i94-2" target="IYHCk8oZbZFXhVj95i94-26" edge="1">
          <mxGeometry relative="1" as="geometry" />
        </mxCell>
        <mxCell id="IYHCk8oZbZFXhVj95i94-2" value="Пользователь" style="shape=umlActor;verticalLabelPosition=bottom;verticalAlign=top;html=1;outlineConnect=0;" parent="1" vertex="1">
          <mxGeometry x="355" y="350" width="30" height="60" as="geometry" />
        </mxCell>
        <mxCell id="IYHCk8oZbZFXhVj95i94-6" value="" style="ellipse;whiteSpace=wrap;html=1;verticalAlign=top;fillColor=#ffe6cc;strokeColor=#d79b00;perimeterSpacing=5;" parent="1" vertex="1">
          <mxGeometry x="197.5" y="150" width="95" height="40" as="geometry" />
        </mxCell>
        <mxCell id="IYHCk8oZbZFXhVj95i94-8" value="Просмотр заявки" style="text;html=1;align=center;verticalAlign=middle;resizable=0;points=[];autosize=1;strokeColor=none;fillColor=none;" parent="1" vertex="1">
          <mxGeometry x="185" y="185" width="120" height="30" as="geometry" />
        </mxCell>
        <mxCell id="IYHCk8oZbZFXhVj95i94-10" value="" style="ellipse;whiteSpace=wrap;html=1;verticalAlign=top;fillColor=#ffe6cc;strokeColor=#d79b00;perimeterSpacing=5;" parent="1" vertex="1">
          <mxGeometry x="170" y="260" width="95" height="40" as="geometry" />
        </mxCell>
        <mxCell id="IYHCk8oZbZFXhVj95i94-11" value="Обработка заявки" style="text;html=1;align=center;verticalAlign=middle;resizable=0;points=[];autosize=1;strokeColor=none;fillColor=none;" parent="1" vertex="1">
          <mxGeometry x="157.5" y="300" width="120" height="30" as="geometry" />
        </mxCell>
        <mxCell id="IYHCk8oZbZFXhVj95i94-14" style="rounded=0;orthogonalLoop=1;jettySize=auto;html=1;" parent="1" source="IYHCk8oZbZFXhVj95i94-12" target="IYHCk8oZbZFXhVj95i94-10" edge="1">
          <mxGeometry relative="1" as="geometry" />
        </mxCell>
        <mxCell id="IYHCk8oZbZFXhVj95i94-29" style="rounded=0;orthogonalLoop=1;jettySize=auto;html=1;" parent="1" source="IYHCk8oZbZFXhVj95i94-12" target="IYHCk8oZbZFXhVj95i94-26" edge="1">
          <mxGeometry relative="1" as="geometry" />
        </mxCell>
        <mxCell id="IYHCk8oZbZFXhVj95i94-48" style="rounded=0;orthogonalLoop=1;jettySize=auto;html=1;" parent="1" source="IYHCk8oZbZFXhVj95i94-12" target="IYHCk8oZbZFXhVj95i94-45" edge="1">
          <mxGeometry relative="1" as="geometry" />
        </mxCell>
        <mxCell id="IYHCk8oZbZFXhVj95i94-12" value="" style="ellipse;whiteSpace=wrap;html=1;verticalAlign=top;fillColor=#ffe6cc;strokeColor=#d79b00;perimeterSpacing=5;" parent="1" vertex="1">
          <mxGeometry x="-5" y="320" width="95" height="40" as="geometry" />
        </mxCell>
        <mxCell id="IYHCk8oZbZFXhVj95i94-13" value="Система" style="text;html=1;align=center;verticalAlign=middle;resizable=0;points=[];autosize=1;strokeColor=none;fillColor=none;" parent="1" vertex="1">
          <mxGeometry x="7.5" y="360" width="70" height="30" as="geometry" />
        </mxCell>
        <mxCell id="IYHCk8oZbZFXhVj95i94-16" value="" style="ellipse;whiteSpace=wrap;html=1;verticalAlign=top;fillColor=#ffe6cc;strokeColor=#d79b00;perimeterSpacing=5;" parent="1" vertex="1">
          <mxGeometry x="413" y="440" width="95" height="40" as="geometry" />
        </mxCell>
        <mxCell id="IYHCk8oZbZFXhVj95i94-17" value="Отправка заявки" style="text;html=1;align=center;verticalAlign=middle;resizable=0;points=[];autosize=1;strokeColor=none;fillColor=none;" parent="1" vertex="1">
          <mxGeometry x="400.5" y="480" width="120" height="30" as="geometry" />
        </mxCell>
        <mxCell id="IYHCk8oZbZFXhVj95i94-21" style="rounded=0;orthogonalLoop=1;jettySize=auto;html=1;" parent="1" source="IYHCk8oZbZFXhVj95i94-18" target="IYHCk8oZbZFXhVj95i94-16" edge="1">
          <mxGeometry relative="1" as="geometry" />
        </mxCell>
        <mxCell id="IYHCk8oZbZFXhVj95i94-36" style="rounded=0;orthogonalLoop=1;jettySize=auto;html=1;" parent="1" source="IYHCk8oZbZFXhVj95i94-18" target="IYHCk8oZbZFXhVj95i94-23" edge="1">
          <mxGeometry relative="1" as="geometry" />
        </mxCell>
        <mxCell id="IYHCk8oZbZFXhVj95i94-18" value="" style="ellipse;whiteSpace=wrap;html=1;verticalAlign=top;fillColor=#ffe6cc;strokeColor=#d79b00;perimeterSpacing=5;" parent="1" vertex="1">
          <mxGeometry x="610" y="500" width="95" height="40" as="geometry" />
        </mxCell>
        <mxCell id="IYHCk8oZbZFXhVj95i94-19" value="Заполнение данных&amp;nbsp;" style="text;html=1;align=center;verticalAlign=middle;resizable=0;points=[];autosize=1;strokeColor=none;fillColor=none;" parent="1" vertex="1">
          <mxGeometry x="587.5" y="540" width="140" height="30" as="geometry" />
        </mxCell>
        <mxCell id="IYHCk8oZbZFXhVj95i94-23" value="" style="ellipse;whiteSpace=wrap;html=1;verticalAlign=top;fillColor=#ffe6cc;strokeColor=#d79b00;perimeterSpacing=5;" parent="1" vertex="1">
          <mxGeometry x="335" y="510" width="95" height="40" as="geometry" />
        </mxCell>
        <mxCell id="IYHCk8oZbZFXhVj95i94-24" value="Изменение заявки" style="text;html=1;align=center;verticalAlign=middle;resizable=0;points=[];autosize=1;strokeColor=none;fillColor=none;" parent="1" vertex="1">
          <mxGeometry x="317.5" y="550" width="130" height="30" as="geometry" />
        </mxCell>
        <mxCell id="IYHCk8oZbZFXhVj95i94-26" value="" style="ellipse;whiteSpace=wrap;html=1;verticalAlign=top;fillColor=#ffe6cc;strokeColor=#d79b00;perimeterSpacing=5;" parent="1" vertex="1">
          <mxGeometry x="220" y="440" width="95" height="40" as="geometry" />
        </mxCell>
        <mxCell id="IYHCk8oZbZFXhVj95i94-27" value="Удаление заявки" style="text;html=1;align=center;verticalAlign=middle;resizable=0;points=[];autosize=1;strokeColor=none;fillColor=none;" parent="1" vertex="1">
          <mxGeometry x="207.5" y="480" width="120" height="30" as="geometry" />
        </mxCell>
        <mxCell id="IYHCk8oZbZFXhVj95i94-45" value="" style="ellipse;whiteSpace=wrap;html=1;verticalAlign=top;fillColor=#ffe6cc;strokeColor=#d79b00;perimeterSpacing=5;" parent="1" vertex="1">
          <mxGeometry x="-170" y="250" width="95" height="40" as="geometry" />
        </mxCell>
        <mxCell id="IYHCk8oZbZFXhVj95i94-46" value="Регистрация заявки" style="text;html=1;align=center;verticalAlign=middle;resizable=0;points=[];autosize=1;strokeColor=none;fillColor=none;" parent="1" vertex="1">
          <mxGeometry x="-187.5" y="290" width="130" height="30" as="geometry" />
        </mxCell>
      </root>
    </mxGraphModel>
  </diagram>
</mxfile>
